<svg xmlns="http://www.w3.org/2000/svg" width="750" viewBox="0 0 750 750" height="750" version="1.0"><defs><clipPath id="a"><path d="M 187 117.265625 L 581 117.265625 L 581 578.988281 L 187 578.988281 Z M 187 117.265625"/></clipPath><clipPath id="b"><path d="M 23.269531 201 L 276 201 L 276 572 L 23.269531 572 Z M 23.269531 201"/></clipPath><clipPath id="c"><path d="M 485 201 L 727.792969 201 L 727.792969 572 L 485 572 Z M 485 201"/></clipPath></defs><g clip-path="url(#a)"><path fill="#67BDEA" d="M 414.230469 578.988281 L 348.789062 578.988281 C 322.167969 578.988281 297.078125 573.34375 275.292969 562.886719 L 335.628906 559.464844 C 349.964844 558.65625 363.308594 555.746094 375.535156 551.042969 C 387.757812 555.746094 401.105469 558.65625 415.441406 559.464844 L 485.890625 563.457031 C 464.621094 573.570312 440.160156 578.988281 414.230469 578.988281 Z M 375.535156 227.113281 C 365.410156 223.480469 354.5 221.074219 342.871094 220.085938 L 187.390625 206.875 C 196.746094 156.167969 241.375 117.265625 295.558594 117.265625 L 480.097656 117.265625 C 532.054688 117.265625 574.222656 156.210938 580.21875 205.46875 L 408.195312 220.082031 C 396.566406 221.070312 385.652344 223.472656 375.53125 227.109375 Z M 375.535156 227.113281"/></g><g clip-path="url(#b)"><path fill="#F7EC38" d="M 126.492188 571.144531 C 69.886719 571.144531 23.304688 525.386719 23.304688 468.273438 L 23.304688 295.65625 C 23.304688 243.144531 66.183594 201.320312 117.890625 201.320312 C 120.597656 201.320312 123.328125 201.433594 126.078125 201.667969 L 187.390625 206.875 C 185.839844 215.296875 185.253906 224.046875 185.773438 233 L 198.070312 448.394531 C 201.101562 501.511719 231.566406 541.898438 275.292969 562.886719 L 132.464844 570.976562 C 130.464844 571.085938 128.46875 571.144531 126.492188 571.144531 Z M 126.492188 571.144531"/></g><path fill="#7CB456" d="M 275.292969 562.886719 C 231.566406 541.898438 201.105469 501.515625 198.070312 448.394531 L 185.773438 232.996094 C 185.257812 224.046875 185.839844 215.296875 187.390625 206.875 L 342.871094 220.085938 C 354.5 221.074219 365.410156 223.476562 375.535156 227.113281 C 323.394531 245.855469 292.261719 297.390625 292.261719 357.269531 L 292.261719 418.488281 C 292.261719 479.0625 323.757812 531.117188 375.535156 551.046875 C 363.308594 555.75 349.964844 558.65625 335.628906 559.46875 L 275.292969 562.890625 Z M 275.292969 562.886719"/><g clip-path="url(#c)"><path fill="#DE4D38" d="M 624.574219 571.144531 C 622.601562 571.144531 620.597656 571.089844 618.601562 570.976562 L 485.886719 563.457031 C 527.3125 543.746094 556.59375 506.195312 560.886719 456.070312 L 580.578125 226.226562 C 581.175781 219.160156 581.039062 212.21875 580.21875 205.464844 L 624.984375 201.660156 C 627.734375 201.425781 630.472656 201.3125 633.171875 201.3125 C 684.878906 201.3125 727.761719 243.136719 727.761719 295.652344 L 727.761719 468.269531 C 727.761719 525.378906 681.183594 571.140625 624.578125 571.136719 Z M 624.574219 571.144531"/></g><path fill="#894C43" d="M 485.886719 563.457031 L 415.4375 559.464844 C 401.101562 558.65625 387.757812 555.746094 375.53125 551.042969 C 427.308594 531.117188 458.804688 479.058594 458.804688 418.484375 L 458.804688 357.265625 C 458.804688 297.386719 427.671875 245.851562 375.53125 227.109375 C 385.652344 223.476562 396.566406 221.070312 408.195312 220.082031 L 580.21875 205.46875 C 581.039062 212.21875 581.175781 219.164062 580.578125 226.230469 L 560.886719 456.074219 C 556.59375 506.199219 527.3125 543.75 485.886719 563.460938 Z M 485.886719 563.457031"/><path fill="#834C43" d="M 375.53125 551.046875 C 323.753906 531.121094 292.257812 479.0625 292.257812 418.488281 L 292.257812 357.269531 C 292.257812 297.390625 323.390625 245.855469 375.53125 227.113281 C 427.671875 245.855469 458.804688 297.390625 458.804688 357.269531 L 458.804688 418.488281 C 458.804688 479.0625 427.308594 531.117188 375.53125 551.046875 Z M 375.53125 551.046875"/><path fill="#323232" d="M 557.277344 382.121094 C 557.277344 480.328125 477.335938 559.9375 378.722656 559.9375 C 280.109375 559.9375 200.167969 480.328125 200.167969 382.121094 C 200.167969 283.917969 280.109375 204.308594 378.722656 204.308594 C 477.335938 204.308594 557.277344 283.921875 557.277344 382.121094 Z M 557.277344 382.121094"/><path fill="#FEFEFE" d="M 476.25 287.984375 C 476.25 299.539062 466.847656 308.90625 455.246094 308.90625 C 443.640625 308.90625 434.234375 299.539062 434.234375 287.984375 C 434.234375 276.433594 443.640625 267.066406 455.246094 267.066406 C 466.847656 267.066406 476.25 276.433594 476.25 287.984375 Z M 476.25 287.984375"/><path fill="#FEFEFE" d="M 499.445312 321.617188 C 499.445312 327.355469 494.777344 332.003906 489.019531 332.003906 C 483.257812 332.003906 478.589844 327.355469 478.589844 321.617188 C 478.589844 315.882812 483.253906 311.234375 489.019531 311.234375 C 494.78125 311.234375 499.445312 315.882812 499.445312 321.617188 Z M 499.445312 321.617188"/><path fill="#FEFEFE" d="M 385.097656 522.957031 C 304.921875 522.957031 239.929688 458.230469 239.929688 378.390625 C 239.929688 331.8125 262.070312 290.414062 296.414062 263.972656 C 255.71875 289.582031 228.679688 334.75 228.679688 386.234375 C 228.679688 466.074219 293.671875 530.800781 373.847656 530.800781 C 407.25 530.800781 437.992188 519.535156 462.527344 500.652344 C 440.109375 514.761719 413.574219 522.957031 385.097656 522.957031 Z M 385.097656 522.957031"/><path fill="#D9D9D9" d="M 375.851562 648.683594 C 174.707031 648.683594 11.648438 654.921875 11.648438 662.613281 C 11.648438 670.308594 174.707031 676.546875 375.851562 676.546875 C 576.996094 676.546875 740.054688 670.308594 740.054688 662.613281 C 740.054688 654.921875 576.996094 648.683594 375.851562 648.683594"/></svg>