<svg width="432.3875px" height="122px" xmlns="http://www.w3.org/2000/svg" viewBox="33.806250000000006 14 432.3875 122" style="background: rgba(0, 0, 0, 0);" preserveAspectRatio="xMidYMid"><defs><linearGradient id="editing-outline-gradient" x1="-0.41354545764260087" x2="1.4135454576426008" y1="0.09326335692419985" y2="0.9067366430758002"><stop offset="0" stop-color="#ee4208"></stop><stop offset="1" stop-color="#4139ff"></stop></linearGradient><filter id="editing-outline" x="-100%" y="-100%" width="300%" height="300%"><feMorphology in="SourceGraphic" operator="dilate" radius="4" result="outline"></feMorphology><feComposite operator="out" in="outline" in2="SourceAlpha"></feComposite></filter></defs><g filter="url(#editing-outline)"><g transform="translate(100.11497983336449, 102.52000045776367)">
  <path d="M30.21-33.92L30.21-33.92L30.21-33.92Q25.02-33.92 21.25-35.65L21.25-35.65L19.20-25.28L31.55-25.28L31.55-25.28Q31.55-21.89 29.86-19.74L29.86-19.74L29.86-19.74Q28.16-17.60 25.09-17.60L25.09-17.60L25.09-17.60Q21.76-17.60 18.69-18.82L18.69-18.82L18.69-18.82Q18.05-19.07 17.98-19.14L17.98-19.14L14.34 0L0.38 0L8.51-42.24L37.06-42.24L37.06-42.24Q37.06-38.34 35.23-36.13L35.23-36.13L35.23-36.13Q33.41-33.92 30.21-33.92ZM48.96 1.28L48.96 1.28L48.96 1.28Q34.88 1.28 34.88-11.97L34.88-11.97L34.88-11.97Q34.88-21.38 40.06-27.46L40.06-27.46L40.06-27.46Q45.57-33.92 55.10-33.92L55.10-33.92L55.10-33.92Q62.02-33.92 65.54-30.72L65.54-30.72L65.54-30.72Q69.06-27.52 69.06-20.80L69.06-20.80L69.06-20.80Q69.06-10.56 63.55-4.61L63.55-4.61L63.55-4.61Q58.18 1.28 48.96 1.28ZM50.62-26.56L50.62-26.56L50.62-26.56Q49.86-24.83 49.25-22.24L49.25-22.24L49.25-22.24Q48.64-19.65 47.87-15.55L47.87-15.55L47.87-15.55Q47.10-11.46 47.10-6.40L47.10-6.40L47.10-6.40Q47.10-4.74 47.65-3.65L47.65-3.65L47.65-3.65Q48.19-2.56 49.66-2.56L49.66-2.56L49.66-2.56Q51.14-2.56 52.06-3.26L52.06-3.26L52.06-3.26Q52.99-3.97 53.70-5.63L53.70-5.63L53.70-5.63Q54.98-8.58 56-14.05L56-14.05L56-14.05Q57.02-19.52 57.12-21.89L57.12-21.89L57.12-21.89Q57.22-24.26 57.22-26.02L57.22-26.02L57.22-26.02Q57.22-27.78 56.70-28.93L56.70-28.93L56.70-28.93Q56.19-30.08 54.75-30.08L54.75-30.08L54.75-30.08Q53.31-30.08 52.35-29.18L52.35-29.18L52.35-29.18Q51.39-28.29 50.62-26.56ZM73.86-6.40L73.86-6.40L73.86-6.40Q73.86-8.13 74.75-12.48L74.75-12.48L78.14-29.76L74.37-29.76L74.62-31.68L74.62-31.68Q82.30-33.98 89.73-39.62L89.73-39.62L92.80-39.62L91.26-32.64L96.26-32.64L95.68-29.76L90.75-29.76L87.49-12.48L87.49-12.48Q86.66-8.51 86.66-7.17L86.66-7.17L86.66-7.17Q86.66-4.10 89.34-3.46L89.34-3.46L89.34-3.46Q88.70-1.28 86.40 0L86.40 0L86.40 0Q84.10 1.28 80.83 1.28L80.83 1.28L80.83 1.28Q77.57 1.28 75.71-0.77L75.71-0.77L75.71-0.77Q73.86-2.82 73.86-6.40ZM109.63 1.28L109.63 1.28L109.63 1.28Q95.55 1.28 95.55-11.97L95.55-11.97L95.55-11.97Q95.55-21.38 100.74-27.46L100.74-27.46L100.74-27.46Q106.24-33.92 115.78-33.92L115.78-33.92L115.78-33.92Q122.69-33.92 126.21-30.72L126.21-30.72L126.21-30.72Q129.73-27.52 129.73-20.80L129.73-20.80L129.73-20.80Q129.73-10.56 124.22-4.61L124.22-4.61L124.22-4.61Q118.85 1.28 109.63 1.28ZM111.30-26.56L111.30-26.56L111.30-26.56Q110.53-24.83 109.92-22.24L109.92-22.24L109.92-22.24Q109.31-19.65 108.54-15.55L108.54-15.55L108.54-15.55Q107.78-11.46 107.78-6.40L107.78-6.40L107.78-6.40Q107.78-4.74 108.32-3.65L108.32-3.65L108.32-3.65Q108.86-2.56 110.34-2.56L110.34-2.56L110.34-2.56Q111.81-2.56 112.74-3.26L112.74-3.26L112.74-3.26Q113.66-3.97 114.37-5.63L114.37-5.63L114.37-5.63Q115.65-8.58 116.67-14.05L116.67-14.05L116.67-14.05Q117.70-19.52 117.79-21.89L117.79-21.89L117.79-21.89Q117.89-24.26 117.89-26.02L117.89-26.02L117.89-26.02Q117.89-27.78 117.38-28.93L117.38-28.93L117.38-28.93Q116.86-30.08 115.42-30.08L115.42-30.08L115.42-30.08Q113.98-30.08 113.02-29.18L113.02-29.18L113.02-29.18Q112.06-28.29 111.30-26.56ZM138.05-26.75L138.05-26.75L138.05-26.75Q140.22-29.82 143.52-31.87L143.52-31.87L143.52-31.87Q146.82-33.92 150.85-33.92L150.85-33.92L150.85-33.92Q154.88-33.92 156.80-32.64L156.80-32.64L169.34-33.92L164.99-9.34L164.99-9.34Q162.75 3.20 158.02 8.13L158.02 8.13L158.02 8.13Q153.47 12.80 144.64 12.80L144.64 12.80L144.64 12.80Q137.92 12.80 134.08 10.69L134.08 10.69L134.08 10.69Q130.24 8.58 130.24 5.06L130.24 5.06L130.24 5.06Q130.24 2.43 132.22 0.93L132.22 0.93L132.22 0.93Q134.21-0.58 137.28-0.58L137.28-0.58L137.28-0.58Q139.97-0.58 142.02 0.64L142.02 0.64L142.02 0.64Q143.23 1.28 143.81 2.18L143.81 2.18L143.81 2.18Q142.34 3.46 142.34 5.57L142.34 5.57L142.34 5.57Q142.34 8.32 144.90 8.32L144.90 8.32L144.90 8.32Q149.18 8.32 151.62-1.79L151.62-1.79L151.62-1.79Q152.32-4.54 152.90-7.30L152.90-7.30L152.90-7.30Q150.02-3.78 143.49-3.78L143.49-3.78L143.49-3.78Q138.94-3.78 136.32-5.95L136.32-5.95L136.32-5.95Q133.70-8.13 133.70-13.25L133.70-13.25L133.70-13.25Q133.70-16.45 134.78-20.06L134.78-20.06L134.78-20.06Q135.87-23.68 138.05-26.75ZM146.37-13.06L146.37-13.06L146.37-13.06Q146.37-8.70 148.61-8.70L148.61-8.70L148.61-8.70Q150.14-8.70 151.62-10.37L151.62-10.37L151.62-10.37Q152.77-11.71 153.22-13.70L153.22-13.70L156.48-30.14L156.48-30.14Q156.16-30.21 155.84-30.34L155.84-30.34L155.84-30.34Q155.20-30.59 154.37-30.59L154.37-30.59L154.37-30.59Q150.46-30.59 148.16-24.19L148.16-24.19L148.16-24.19Q146.37-19.20 146.37-13.06ZM191.87-17.98L191.87-17.98L191.87-17.98Q194.18-22.08 194.18-26.24L194.18-26.24L194.18-26.24Q194.18-28.99 192.19-28.99L192.19-28.99L192.19-28.99Q190.66-28.99 189.06-26.37L189.06-26.37L189.06-26.37Q187.39-23.74 186.88-20.35L186.88-20.35L183.55 0L170.30 1.28L176.83-32.64L187.39-33.92L186.24-27.46L186.24-27.46Q189.38-33.92 196.42-33.92L196.42-33.92L196.42-33.92Q200.13-33.92 202.14-32L202.14-32L202.14-32Q204.16-30.08 204.16-26.14L204.16-26.14L204.16-26.14Q204.16-22.21 201.57-19.71L201.57-19.71L201.57-19.71Q198.98-17.22 194.56-17.22L194.56-17.22L194.56-17.22Q192.64-17.22 191.87-17.98ZM207.97-1.92L207.97-1.92L207.97-1.92Q206.46-3.58 205.79-6.21L205.79-6.21L205.79-6.21Q205.12-8.83 205.12-13.12L205.12-13.12L205.12-13.12Q205.12-17.41 206.59-21.31L206.59-21.31L206.59-21.31Q208.06-25.22 210.75-28.03L210.75-28.03L210.75-28.03Q216.26-33.92 225.34-33.92L225.34-33.92L225.34-33.92Q228.61-33.92 230.98-32.83L230.98-32.83L241.92-33.92L237.18-8.96L237.18-8.96Q236.99-8.19 236.99-6.78L236.99-6.78L236.99-6.78Q236.99-5.38 237.86-4.48L237.86-4.48L237.86-4.48Q238.72-3.58 240-3.46L240-3.46L240-3.46Q239.36-1.28 237.02 0L237.02 0L237.02 0Q234.69 1.28 232.06 1.28L232.06 1.28L232.06 1.28Q229.44 1.28 227.68 0.29L227.68 0.29L227.68 0.29Q225.92-0.70 225.41-2.37L225.41-2.37L225.41-2.37Q224.38-0.77 222.21 0.26L222.21 0.26L222.21 0.26Q220.03 1.28 217.12 1.28L217.12 1.28L217.12 1.28Q214.21 1.28 211.84 0.51L211.84 0.51L211.84 0.51Q209.47-0.26 207.97-1.92ZM221.47-27.90L221.47-27.90L221.47-27.90Q220.74-26.75 220.10-24.80L220.10-24.80L220.10-24.80Q219.46-22.85 218.40-17.63L218.40-17.63L218.40-17.63Q217.34-12.42 217.34-8.70L217.34-8.70L217.34-8.70Q217.34-4.99 217.92-3.90L217.92-3.90L217.92-3.90Q218.50-2.82 219.52-2.82L219.52-2.82L219.52-2.82Q221.57-2.82 223.07-4.77L223.07-4.77L223.07-4.77Q224.58-6.72 225.15-10.18L225.15-10.18L228.54-28.93L228.54-28.93Q227.20-30.08 225.63-30.08L225.63-30.08L225.63-30.08Q224.06-30.08 223.14-29.57L223.14-29.57L223.14-29.57Q222.21-29.06 221.47-27.90ZM291.46 1.28L291.46 1.28L291.46 1.28Q283.71 1.28 283.71-4.74L283.71-4.74L283.71-4.74Q283.71-7.36 284.83-12.45L284.83-12.45L284.83-12.45Q285.95-17.54 286.34-19.58L286.34-19.58L286.34-19.58Q287.23-24.26 287.23-25.73L287.23-25.73L287.23-25.73Q287.23-28.99 284.80-28.99L284.80-28.99L284.80-28.99Q283.20-28.99 281.66-26.78L281.66-26.78L281.66-26.78Q280.13-24.58 279.42-20.16L279.42-20.16L275.46 0L262.98 1.28L266.43-16.13L266.43-16.13Q267.01-19.01 267.52-22.27L267.52-22.27L267.52-22.27Q268.03-25.54 268.03-26.05L268.03-26.05L268.03-26.05Q268.03-28.99 265.86-28.99L265.86-28.99L265.86-28.99Q264.38-28.99 262.78-26.82L262.78-26.82L262.78-26.82Q261.18-24.64 260.29-20.16L260.29-20.16L256.38 0L243.78 1.28L250.50-32.64L260.93-33.92L259.84-27.46L259.84-27.46Q261.50-30.91 264.58-32.42L264.58-32.42L264.58-32.42Q267.65-33.92 272.45-33.92L272.45-33.92L272.45-33.92Q275.20-33.92 276.99-32.58L276.99-32.58L276.99-32.58Q278.78-31.23 279.36-29.06L279.36-29.06L279.36-29.06Q280.45-31.30 283.23-32.61L283.23-32.61L283.23-32.61Q286.02-33.92 289.44-33.92L289.44-33.92L289.44-33.92Q292.86-33.92 294.56-33.18L294.56-33.18L294.56-33.18Q296.26-32.45 297.28-31.23L297.28-31.23L297.28-31.23Q299.01-28.99 299.01-24.90L299.01-24.90L299.01-24.90Q299.01-20.86 297.28-12.48L297.28-12.48L297.28-12.48Q296.38-8.38 296.38-6.88L296.38-6.88L296.38-6.88Q296.38-5.38 297.25-4.48L297.25-4.48L297.25-4.48Q298.11-3.58 299.39-3.46L299.39-3.46L299.39-3.46Q298.75-1.28 296.54 0L296.54 0L296.54 0Q294.34 1.28 291.46 1.28Z" fill="url(#editing-outline-gradient)"></path>
</g></g></svg>